name D:\school\WTK\thesis\model\3dpredictsim\Results\Batchsim_tmt_linear_v2\Pog_s1_tmt_bCst_d00_k800_ig24_act.mot
datacolumns 128
datarows 4
range 0.68370028 0.72472230
endheader
time	pelvis_tilt	pelvis_list	pelvis_rotation	pelvis_tx	pelvis_ty	pelvis_tz	hip_flexion_l	hip_adduction_l	hip_rotation_l	hip_flexion_r	hip_adduction_r	hip_rotation_r	knee_angle_l	knee_angle_r	ankle_angle_l	ankle_angle_r	subtalar_angle_l	subtalar_angle_r	tmt_angle_l	tmt_angle_r	mtp_angle_l	mtp_angle_r	lumbar_extension	lumbar_bending	lumbar_rotation	arm_flex_l	arm_add_l	arm_rot_l	arm_flex_r	arm_add_r	arm_rot_r	elbow_flex_l	elbow_flex_r	pro_sup_l	pro_sup_r	glut_med1_l/activation	glut_med2_l/activation	glut_med3_l/activation	glut_min1_l/activation	glut_min2_l/activation	glut_min3_l/activation	semimem_l/activation	semiten_l/activation	bifemlh_l/activation	bifemsh_l/activation	sar_l/activation	add_long_l/activation	add_brev_l/activation	add_mag1_l/activation	add_mag2_l/activation	add_mag3_l/activation	tfl_l/activation	pect_l/activation	grac_l/activation	glut_max1_l/activation	glut_max2_l/activation	glut_max3_l/activation	iliacus_l/activation	psoas_l/activation	quad_fem_l/activation	gem_l/activation	peri_l/activation	rect_fem_l/activation	vas_med_l/activation	vas_int_l/activation	vas_lat_l/activation	med_gas_l/activation	lat_gas_l/activation	soleus_l/activation	tib_post_l/activation	flex_dig_l/activation	flex_hal_l/activation	tib_ant_l/activation	per_brev_l/activation	per_long_l/activation	per_tert_l/activation	ext_dig_l/activation	ext_hal_l/activation	ercspn_l/activation	intobl_l/activation	extobl_l/activation	glut_med1_r/activation	glut_med2_r/activation	glut_med3_r/activation	glut_min1_r/activation	glut_min2_r/activation	glut_min3_r/activation	semimem_r/activation	semiten_r/activation	bifemlh_r/activation	bifemsh_r/activation	sar_r/activation	add_long_r/activation	add_brev_r/activation	add_mag1_r/activation	add_mag2_r/activation	add_mag3_r/activation	tfl_r/activation	pect_r/activation	grac_r/activation	glut_max1_r/activation	glut_max2_r/activation	glut_max3_r/activation	iliacus_r/activation	psoas_r/activation	quad_fem_r/activation	gem_r/activation	peri_r/activation	rect_fem_r/activation	vas_med_r/activation	vas_int_r/activation	vas_lat_r/activation	med_gas_r/activation	lat_gas_r/activation	soleus_r/activation	tib_post_r/activation	flex_dig_r/activation	flex_hal_r/activation	tib_ant_r/activation	per_brev_r/activation	per_long_r/activation	per_tert_r/activation	ext_dig_r/activation	ext_hal_r/activation	ercspn_r/activation	intobl_r/activation	extobl_r/activation	
          0.68370028	         -1.36612370	         -1.90367613	         -9.82992217	          0.85462535	          0.85359467	          0.00318099	         29.03791972	         -3.03759089	          0.20699552	        -18.08194647	         -0.63812982	          2.60439640	         -7.58722760	        -19.52818311	         10.42497064	        -18.28317303	          0.85880411	          6.23842690	          0.03239074	          0.85334743	         -0.01195558	         37.88800095	          1.56808606	          5.24247125	          4.41529841	        -13.87758753	        -13.48982988	         14.04274980	          0.51119503	        -13.69031968	          7.22940990	         20.38869722	         25.40750698	         86.51662706	         86.51662706	          0.15540816	          0.16173639	          0.22233277	          0.06139868	          0.05180746	          0.06020896	          0.08965877	          0.09192501	          0.08594158	          0.09521889	          0.05000028	          0.06638484	          0.07538888	          0.15252440	          0.18360006	          0.17037459	          0.05000146	          0.05000243	          0.11084506	          0.14450180	          0.17050413	          0.20919166	          0.05970554	          0.05753486	          0.11781948	          0.05000180	          0.13034856	          0.06139709	          0.15429039	          0.18422107	          0.12995259	          0.05268601	          0.06097586	          0.05000002	          0.05000022	          0.05000076	          0.05000084	          0.54923867	          0.31204859	          0.19182040	          0.39675677	          0.60133912	          0.39565105	          0.05000002	          0.13956767	          0.11237206	          0.12352753	          0.05000573	          0.06139848	          0.12476822	          0.07538619	          0.05218799	          0.05011168	          0.05000266	          0.05639916	          0.05000068	          0.07357232	          0.28406196	          0.26318841	          0.13927726	          0.06154604	          0.06140089	          0.11365043	          0.12368748	          0.07538550	          0.05004072	          0.05008425	          0.06139634	          0.27710319	          0.40047006	          0.07538699	          0.06142192	          0.06139551	          0.26983839	          0.05634215	          0.05810449	          0.08727365	          0.05000020	          0.06195506	          0.05000006	          0.09736540	          0.08458688	          0.10472363	          0.25729107	          0.31145048	          0.18907488	          0.53668746	          0.62895107	          0.09792551	          0.05864367	          0.06060512	          0.06139452	
          0.69737429	         -1.35408866	         -2.13486013	         -9.81100898	          0.87874557	          0.85157432	          0.00278216	         28.41123672	         -2.95787519	          0.38949960	        -18.03179379	         -0.81186392	          2.42100753	         -9.19534057	        -21.60755527	          9.45894109	        -20.69308853	          0.63735821	          6.69514280	         -0.00742743	          0.63205352	         -0.18339852	         35.66029392	          1.86938673	          5.05121967	          4.52285683	        -16.25741761	        -13.55174388	         14.45663913	          0.17410041	        -13.78245043	          7.76177774	         20.48882111	         26.38582064	         86.51662706	         86.51662706	          0.28211358	          0.37189639	          0.50916661	          0.05000533	          0.05000830	          0.39257330	          0.07301827	          0.07486377	          0.07440374	          0.07754619	          0.06139498	          0.05406408	          0.06139676	          0.12421584	          0.14952390	          0.17866757	          0.05000117	          0.05015793	          0.09027238	          0.25884045	          0.23864400	          0.22324635	          0.05001584	          0.05000075	          0.09595351	          0.09257288	          0.32856425	          0.05000176	          0.12565401	          0.15002951	          0.10583333	          0.05000014	          0.05000062	          0.05000021	          0.05000115	          0.06139523	          0.06139509	          0.70699713	          0.36556694	          0.20578084	          0.68417948	          0.72761378	          0.59447350	          0.05312834	          0.11366371	          0.09151565	          0.14297957	          0.05000234	          0.05000311	          0.10161205	          0.06139551	          0.05000169	          0.05000242	          0.05000042	          0.05000091	          0.05000028	          0.05993813	          0.23134094	          0.21434074	          0.11342772	          0.05012467	          0.05000583	          0.09255705	          0.10073166	          0.06139421	          0.05001499	          0.05000698	          0.05000735	          0.22567260	          0.38989352	          0.06139513	          0.05002242	          0.05000058	          0.21975600	          0.09065788	          0.08508436	          0.07982625	          0.05000037	          0.05045756	          0.05000022	          0.07929426	          0.06888771	          0.08528688	          0.26616349	          0.28413129	          0.16671686	          0.60572420	          0.80568385	          0.39315691	          0.09786473	          0.05000004	          0.05000015	
          0.71104829	         -1.33810652	         -2.32839569	         -9.73587773	          0.90223858	          0.84950473	          0.00235082	         27.87080770	         -2.83170165	          0.55785203	        -17.73140698	         -0.97992920	          2.27651055	        -10.87099011	        -24.08191927	          8.31059903	        -22.31073727	          0.42438588	          7.10484079	         -0.02471696	          0.41304532	         -0.18897092	         31.27750134	          2.11561846	          4.79446459	          4.60692977	        -18.41700336	        -13.60468229	         15.05948893	         -0.06406049	        -13.84094426	          8.28293707	         20.35831316	         27.24633360	         86.51662706	         86.51662706	          0.32925825	          0.46635724	          0.55701551	          0.15217647	          0.26408452	          0.31971247	          0.05946611	          0.07410121	          0.06139410	          0.06315356	          0.05000048	          0.05000015	          0.05000159	          0.10186009	          0.19281274	          0.18982122	          0.05000043	          0.05000082	          0.07351850	          0.34558579	          0.29544475	          0.25971950	          0.05000006	          0.05000007	          0.15336047	          0.07539237	          0.26758281	          0.05000005	          0.19269421	          0.26326702	          0.17558161	          0.05000001	          0.05000003	          0.05000000	          0.05000000	          0.05000034	          0.05000019	          0.76377075	          0.35962046	          0.17388033	          0.83478727	          0.79981164	          0.64089546	          0.06602148	          0.09256757	          0.07453022	          0.11644262	          0.05000008	          0.05000003	          0.08275380	          0.05000142	          0.05000029	          0.06234371	          0.05000014	          0.05000045	          0.05000012	          0.05000116	          0.23105782	          0.22274259	          0.09238043	          0.05001164	          0.08289052	          0.07537858	          0.08203653	          0.05000030	          0.05000121	          0.05000094	          0.05000092	          0.18378750	          0.35327908	          0.05000018	          0.05000027	          0.05000016	          0.17896898	          0.07538694	          0.07538694	          0.07538693	          0.05000282	          0.05000918	          0.06212356	          0.06457719	          0.05610252	          0.06945787	          0.35024426	          0.26952722	          0.16085174	          0.54245170	          0.89834790	          0.32018645	          0.13351468	          0.05000001	          0.05000006	
          0.72472230	         -1.32006012	         -2.47671343	         -9.60259893	          0.92473875	          0.84791706	          0.00185775	         27.57830130	         -2.65507452	          0.70109582	        -17.12982161	         -1.14382208	          2.16149585	        -12.77269909	        -26.87358951	          6.82500456	        -23.37537675	          0.22532698	          7.49477593	         -0.04387961	          0.16866953	         -0.26846340	         24.97214950	          2.29119617	          4.47467249	          4.67154478	        -20.27457090	        -13.62558328	         15.79237278	         -0.13039420	        -13.84919519	          8.86486829	         19.97665080	         27.89518197	         86.51662706	         86.51662706	          0.39379431	          0.54510397	          0.63409007	          0.20446226	          0.31118931	          0.37391967	          0.05000024	          0.06034817	          0.05000143	          0.05143223	          0.05000068	          0.05000033	          0.05000056	          0.08295555	          0.15702871	          0.18321423	          0.05000036	          0.05000198	          0.05987385	          0.36823901	          0.32354662	          0.26264322	          0.05000016	          0.05000018	          0.12489695	          0.06140035	          0.26642150	          0.05000045	          0.44247518	          0.47913658	          0.37407251	          0.05000006	          0.05000021	          0.05000002	          0.15181412	          0.16875351	          0.16137464	          0.87642326	          0.29287438	          0.14160789	          0.67984955	          0.65136545	          0.52194489	          0.07795374	          0.07538689	          0.06069733	          0.09483078	          0.07538603	          0.06859900	          0.06739477	          0.05000142	          0.05000109	          0.07574742	          0.05813283	          0.10097486	          0.05000013	          0.05000067	          0.20635447	          0.29651189	          0.25444564	          0.10750827	          0.09256751	          0.06138844	          0.06681220	          0.05000809	          0.05013329	          0.07468203	          0.07539240	          0.14967632	          0.29668477	          0.05000200	          0.05000897	          0.05000328	          0.14575208	          0.06139504	          0.06139504	          0.06139502	          0.05000197	          0.05000546	          0.06139497	          0.05567712	          0.06139485	          0.06139137	          0.38177865	          0.21950304	          0.14440596	          0.44177248	          0.94682345	          0.33210493	          0.16277360	          0.05000066	          0.05000007	
